<?xml version="1.0" standalone="no"?>
<!DOCTYPE svg PUBLIC "-//W3C//DTD SVG 20010904//EN"
 "http://www.w3.org/TR/2001/REC-SVG-20010904/DTD/svg10.dtd">
<svg version="1.0" xmlns="http://www.w3.org/2000/svg"
 width="295.000000pt" height="120.000000pt" viewBox="0 0 295.000000 120.000000"
 preserveAspectRatio="xMidYMid meet">

<g transform="translate(0.000000,120.000000) scale(0.100000,-0.100000)"
fill="#000000" stroke="none">
<path d="M0 600 l0 -590 1475 0 1475 0 0 590 0 590 -1475 0 -1475 0 0 -590z
m648 450 l33 -38 -26 -26 c-18 -19 -25 -35 -24 -63 1 -31 2 -34 8 -14 3 13 17
31 29 39 22 14 25 13 66 -33 l44 -48 -44 -45 c-42 -42 -45 -44 -66 -30 -13 9
-26 26 -29 39 -5 15 -7 0 -8 -40 l-1 -64 23 20 c52 48 133 52 185 8 15 -12 41
-25 58 -29 81 -18 154 -125 154 -227 0 -45 -7 -71 -35 -125 -26 -52 -35 -82
-35 -121 l0 -53 -375 0 -375 0 0 51 c0 38 -9 69 -32 117 -28 56 -32 76 -32
138 1 59 5 80 27 117 31 53 64 81 114 98 20 6 51 22 70 35 19 13 50 26 67 30
35 6 97 -15 128 -43 17 -15 18 -13 18 45 0 34 -4 62 -10 62 -5 0 -7 -6 -4 -14
3 -8 -4 -24 -15 -35 -23 -23 -45 -19 -74 11 -10 10 -22 18 -27 18 -5 0 -14 9
-20 20 -12 23 2 60 24 60 7 0 21 9 31 20 10 11 28 20 41 20 24 0 50 -33 39
-50 -3 -6 -1 -10 4 -10 22 0 11 64 -15 91 l-26 28 33 40 c19 22 36 40 39 40 3
0 20 -18 38 -39z m2003 -244 c16 -19 17 -19 24 2 3 12 11 20 16 17 12 -8 12
-62 -1 -70 -5 -3 -10 0 -10 7 0 9 -3 9 -10 -2 -8 -12 -11 -11 -17 10 l-7 25
-7 -25 c-6 -23 -7 -23 -8 8 -1 21 -6 32 -16 32 -10 0 -16 -11 -17 -32 l-1 -33
-4 33 c-2 17 -8 32 -14 32 -5 0 -9 5 -9 11 0 18 64 6 81 -15z m-1173 -218 l-3
-133 -25 0 -25 0 -3 133 -3 132 31 0 31 0 -3 -132z m792 107 c0 -21 -5 -25
-30 -25 -25 0 -30 4 -30 25 0 21 5 25 30 25 25 0 30 -4 30 -25z m-987 -47 c22
-11 46 -37 47 -49 0 -15 -45 -17 -61 -3 -11 10 -25 13 -39 9 -18 -6 -21 -13
-18 -53 3 -41 6 -47 27 -50 15 -2 28 3 33 12 12 21 58 21 58 1 0 -9 -11 -27
-25 -40 -57 -58 -155 -11 -155 75 0 51 12 75 48 94 33 19 57 20 85 4z m490
-19 c12 -15 17 -39 17 -84 0 -35 3 -70 6 -79 5 -12 0 -16 -19 -16 -14 0 -29 5
-32 10 -4 7 -12 7 -25 0 -47 -25 -100 2 -100 51 0 32 26 53 78 64 18 4 32 13
32 21 0 17 -33 18 -59 2 -10 -6 -26 -8 -35 -5 -14 5 -15 11 -6 27 24 44 109
50 143 9z m201 21 c14 -5 30 -18 36 -29 9 -18 7 -21 -17 -27 -17 -5 -28 -3
-31 4 -4 14 -62 16 -62 3 0 -5 15 -13 33 -16 47 -11 87 -33 87 -50 0 -10 10
-15 30 -15 17 0 30 -4 30 -9 0 -5 6 -11 14 -14 18 -7 56 2 56 13 0 9 -11 13
-62 24 -95 21 -62 136 36 123 44 -6 72 -28 63 -51 -7 -17 -47 -22 -47 -6 0 6
-13 10 -30 10 -40 0 -38 -17 3 -25 17 -4 44 -14 60 -21 57 -30 17 -114 -55
-114 -35 0 -88 26 -89 43 0 9 -2 9 -6 -1 -7 -18 -57 -42 -88 -42 -48 0 -108
44 -88 64 11 11 43 6 67 -9 23 -15 56 -11 56 6 0 5 -12 11 -27 15 -58 12 -83
27 -90 52 -7 30 5 52 38 69 29 15 50 16 83 3z m528 -17 c24 -22 23 -40 -4 -49
-14 -4 -25 -1 -33 10 -26 35 -65 11 -65 -39 0 -17 5 -36 12 -43 17 -17 47 -15
54 3 7 17 49 20 59 5 10 -17 -51 -70 -80 -70 -88 0 -135 106 -76 174 34 39 95
43 133 9z m-234 -80 c-3 -97 -3 -98 -28 -98 -25 0 -25 1 -28 98 l-3 97 31 0
31 0 -3 -97z m-851 -227 c-2 -6 -13 -12 -25 -14 -20 -3 -22 -9 -22 -63 0 -46
-3 -59 -15 -59 -12 0 -15 15 -15 76 0 60 3 75 13 71 8 -3 20 -1 27 3 17 10 42
1 37 -14z m405 10 c11 -11 16 -11 35 1 21 14 26 14 48 -1 22 -15 25 -23 25
-81 0 -51 -3 -65 -15 -65 -12 0 -15 13 -15 60 0 45 -4 62 -15 66 -28 11 -45
-16 -45 -72 0 -41 -4 -54 -15 -54 -10 0 -15 16 -17 63 -3 54 -5 62 -23 62 -18
0 -20 -8 -23 -62 -2 -47 -7 -63 -17 -63 -12 0 -15 16 -15 76 0 60 3 75 13 71
8 -3 20 -1 28 4 20 12 36 11 51 -5z m259 4 c13 -8 25 -7 40 0 16 9 26 8 45 -5
21 -14 24 -23 24 -80 0 -51 -3 -65 -15 -65 -12 0 -15 13 -15 60 0 47 -4 62
-16 67 -25 9 -44 -24 -44 -79 0 -36 -4 -48 -15 -48 -12 0 -15 13 -15 59 0 62
-7 75 -34 65 -12 -5 -16 -20 -16 -65 0 -46 -3 -59 -15 -59 -12 0 -15 15 -15
76 0 60 3 75 13 71 8 -3 20 -1 28 4 18 11 26 11 50 -1z m-521 -60 c0 -47 4
-62 16 -67 25 -9 44 24 44 79 0 36 4 48 15 48 12 0 15 -15 15 -74 l0 -75 -29
1 c-15 1 -33 -2 -39 -5 -21 -14 -54 28 -59 75 -6 55 0 78 22 78 12 0 15 -13
15 -60z m720 5 c15 -41 19 -47 25 -30 27 70 36 85 49 85 12 0 9 -16 -15 -82
-37 -101 -54 -128 -79 -128 -26 0 -26 26 0 33 26 7 25 21 -5 101 -30 79 -30
78 -8 74 9 -2 23 -24 33 -53z"/>
<path d="M422 715 c-17 -15 -34 -41 -40 -66 -20 -80 14 -138 140 -240 l88 -70
82 68 c133 108 153 138 146 221 -4 47 -10 60 -37 84 -47 42 -108 40 -160 -7
-30 -28 -40 -32 -45 -20 -9 25 -68 55 -108 55 -24 0 -46 -8 -66 -25z"/>
<path d="M290 638 c-42 -45 -53 -78 -48 -147 3 -36 15 -90 28 -118 l22 -53
120 0 119 0 -58 49 c-116 97 -154 155 -156 236 -1 30 -2 55 -4 55 -1 0 -12
-10 -23 -22z"/>
<path d="M900 611 c0 -83 -52 -161 -175 -259 l-40 -32 121 0 121 0 22 58 c45
114 38 202 -19 257 l-30 29 0 -53z"/>
<path d="M1683 533 c-18 -7 -16 -30 2 -37 23 -8 45 4 45 25 0 19 -20 24 -47
12z"/>
</g>
</svg>
